<mxfile host="app.diagrams.net" modified="2022-03-21T17:20:27.015Z" agent="5.0 (Windows NT 10.0; Win64; x64) AppleWebKit/537.36 (KHTML, like Gecko) Chrome/99.0.4844.74 Safari/537.36" etag="XNNnWhbRIpuPcjkmTNi1" version="17.1.3" type="github">
  <diagram id="C5RBs43oDa-KdzZeNtuy" name="Page-1">
    <mxGraphModel dx="815" dy="558" grid="0" gridSize="10" guides="1" tooltips="1" connect="1" arrows="1" fold="1" page="1" pageScale="1" pageWidth="827" pageHeight="1169" math="0" shadow="0">
      <root>
        <mxCell id="WIyWlLk6GJQsqaUBKTNV-0" />
        <mxCell id="WIyWlLk6GJQsqaUBKTNV-1" parent="WIyWlLk6GJQsqaUBKTNV-0" />
        <mxCell id="WIyWlLk6GJQsqaUBKTNV-3" value="&lt;font style=&quot;font-size: 22px&quot;&gt;Smart&amp;nbsp; A.I.&amp;nbsp;&lt;/font&gt;&lt;font style=&quot;font-size: 9px&quot;&gt;Group 20&lt;/font&gt;" style="rounded=1;whiteSpace=wrap;html=1;fontSize=12;glass=0;strokeWidth=1;shadow=0;" parent="WIyWlLk6GJQsqaUBKTNV-1" vertex="1">
          <mxGeometry x="279" y="48" width="171" height="40" as="geometry" />
        </mxCell>
        <mxCell id="YYjnZJt8T2wif80E0kBL-2" value="&lt;h1&gt;&lt;font style=&quot;font-size: 24px&quot;&gt;PHASE 1 - DEPLOYMENT&lt;/font&gt;&lt;/h1&gt;" style="verticalLabelPosition=middle;verticalAlign=middle;shape=mxgraph.basic.rect;fillColor2=none;strokeWidth=2;size=20;indent=5;opacity=50;fillColor=#dae8fc;strokeColor=#000000;shadow=0;gradientColor=none;labelPosition=center;align=center;fontColor=#FF3021;flipV=1;flipH=1;direction=west;html=1;whiteSpace=wrap;fontStyle=1;fontSize=12;fontFamily=Verdana;horizontal=1;labelBackgroundColor=none;labelBorderColor=none;sketch=0;" vertex="1" parent="WIyWlLk6GJQsqaUBKTNV-1">
          <mxGeometry x="150" y="110" width="440" height="150" as="geometry" />
        </mxCell>
        <mxCell id="YYjnZJt8T2wif80E0kBL-14" style="edgeStyle=orthogonalEdgeStyle;rounded=0;jumpStyle=gap;orthogonalLoop=1;jettySize=auto;html=1;exitX=0.5;exitY=1;exitDx=0;exitDy=0;entryX=1;entryY=0.5;entryDx=0;entryDy=0;fontFamily=Verdana;fontSize=12;fontColor=#FF3021;startArrow=none;startFill=0;endArrow=block;endSize=7;targetPerimeterSpacing=16;" edge="1" parent="WIyWlLk6GJQsqaUBKTNV-1" source="YYjnZJt8T2wif80E0kBL-3" target="YYjnZJt8T2wif80E0kBL-12">
          <mxGeometry relative="1" as="geometry" />
        </mxCell>
        <mxCell id="YYjnZJt8T2wif80E0kBL-15" style="edgeStyle=orthogonalEdgeStyle;rounded=0;jumpStyle=gap;orthogonalLoop=1;jettySize=auto;html=1;exitX=0.5;exitY=1;exitDx=0;exitDy=0;entryX=1;entryY=0.5;entryDx=0;entryDy=0;fontFamily=Verdana;fontSize=12;fontColor=#FF3021;startArrow=none;startFill=0;endArrow=block;endSize=7;targetPerimeterSpacing=16;" edge="1" parent="WIyWlLk6GJQsqaUBKTNV-1" source="YYjnZJt8T2wif80E0kBL-3" target="YYjnZJt8T2wif80E0kBL-11">
          <mxGeometry relative="1" as="geometry" />
        </mxCell>
        <mxCell id="YYjnZJt8T2wif80E0kBL-3" value="Pack&lt;br&gt;(Alpha + wolfs)" style="rounded=1;whiteSpace=wrap;html=1;fontSize=12;glass=0;strokeWidth=1;shadow=0;" vertex="1" parent="WIyWlLk6GJQsqaUBKTNV-1">
          <mxGeometry x="280" y="120" width="86" height="40" as="geometry" />
        </mxCell>
        <mxCell id="YYjnZJt8T2wif80E0kBL-17" style="edgeStyle=orthogonalEdgeStyle;rounded=0;jumpStyle=gap;orthogonalLoop=1;jettySize=auto;html=1;exitX=0.5;exitY=1;exitDx=0;exitDy=0;entryX=0;entryY=0.5;entryDx=0;entryDy=0;fontFamily=Verdana;fontSize=12;fontColor=#FF3021;startArrow=none;startFill=0;endArrow=block;endSize=7;targetPerimeterSpacing=16;" edge="1" parent="WIyWlLk6GJQsqaUBKTNV-1" source="YYjnZJt8T2wif80E0kBL-4" target="YYjnZJt8T2wif80E0kBL-16">
          <mxGeometry relative="1" as="geometry" />
        </mxCell>
        <mxCell id="YYjnZJt8T2wif80E0kBL-4" value="Lone Wolf&lt;br&gt;Omega" style="rounded=1;whiteSpace=wrap;html=1;fontSize=12;glass=0;strokeWidth=1;shadow=0;" vertex="1" parent="WIyWlLk6GJQsqaUBKTNV-1">
          <mxGeometry x="395" y="120" width="60" height="40" as="geometry" />
        </mxCell>
        <mxCell id="YYjnZJt8T2wif80E0kBL-11" value="def pack_empty_space()" style="rounded=1;whiteSpace=wrap;html=1;fontSize=12;glass=0;strokeWidth=1;shadow=0;" vertex="1" parent="WIyWlLk6GJQsqaUBKTNV-1">
          <mxGeometry x="160" y="230" width="140" height="20" as="geometry" />
        </mxCell>
        <mxCell id="YYjnZJt8T2wif80E0kBL-12" value="def far_from_walls()" style="rounded=1;whiteSpace=wrap;html=1;fontSize=12;glass=0;strokeWidth=1;shadow=0;" vertex="1" parent="WIyWlLk6GJQsqaUBKTNV-1">
          <mxGeometry x="180" y="200" width="120" height="20" as="geometry" />
        </mxCell>
        <mxCell id="YYjnZJt8T2wif80E0kBL-16" value="def away from_pack()" style="rounded=1;whiteSpace=wrap;html=1;fontSize=12;glass=0;strokeWidth=1;shadow=0;" vertex="1" parent="WIyWlLk6GJQsqaUBKTNV-1">
          <mxGeometry x="450" y="200" width="130" height="20" as="geometry" />
        </mxCell>
        <mxCell id="YYjnZJt8T2wif80E0kBL-18" value="&lt;h1&gt;PHASE 2 - HUNT&lt;/h1&gt;" style="verticalLabelPosition=middle;verticalAlign=middle;shape=mxgraph.basic.rect;fillColor2=none;strokeWidth=2;size=20;indent=5;opacity=50;fillColor=#dae8fc;strokeColor=#000000;shadow=0;gradientColor=none;labelPosition=center;align=center;fontColor=#FF3021;flipV=1;flipH=1;direction=west;html=1;whiteSpace=wrap;fontStyle=1;fontSize=12;fontFamily=Verdana;horizontal=1;labelBackgroundColor=none;labelBorderColor=none;sketch=0;" vertex="1" parent="WIyWlLk6GJQsqaUBKTNV-1">
          <mxGeometry x="150" y="310" width="440" height="160" as="geometry" />
        </mxCell>
        <mxCell id="YYjnZJt8T2wif80E0kBL-19" style="edgeStyle=orthogonalEdgeStyle;rounded=0;jumpStyle=gap;orthogonalLoop=1;jettySize=auto;html=1;exitX=0.5;exitY=1;exitDx=0;exitDy=0;entryX=1;entryY=0.5;entryDx=0;entryDy=0;fontFamily=Verdana;fontSize=12;fontColor=#FF3021;startArrow=none;startFill=0;endArrow=block;endSize=7;targetPerimeterSpacing=16;" edge="1" parent="WIyWlLk6GJQsqaUBKTNV-1" source="YYjnZJt8T2wif80E0kBL-21" target="YYjnZJt8T2wif80E0kBL-25">
          <mxGeometry relative="1" as="geometry" />
        </mxCell>
        <mxCell id="YYjnZJt8T2wif80E0kBL-20" style="edgeStyle=orthogonalEdgeStyle;rounded=0;jumpStyle=gap;orthogonalLoop=1;jettySize=auto;html=1;exitX=0.5;exitY=1;exitDx=0;exitDy=0;entryX=1;entryY=0.5;entryDx=0;entryDy=0;fontFamily=Verdana;fontSize=12;fontColor=#FF3021;startArrow=none;startFill=0;endArrow=block;endSize=7;targetPerimeterSpacing=16;" edge="1" parent="WIyWlLk6GJQsqaUBKTNV-1" source="YYjnZJt8T2wif80E0kBL-21" target="YYjnZJt8T2wif80E0kBL-24">
          <mxGeometry relative="1" as="geometry" />
        </mxCell>
        <mxCell id="YYjnZJt8T2wif80E0kBL-21" value="Pack&lt;br&gt;(Alpha + wolfs)" style="rounded=1;whiteSpace=wrap;html=1;fontSize=12;glass=0;strokeWidth=1;shadow=0;" vertex="1" parent="WIyWlLk6GJQsqaUBKTNV-1">
          <mxGeometry x="280" y="330" width="86" height="40" as="geometry" />
        </mxCell>
        <mxCell id="YYjnZJt8T2wif80E0kBL-22" style="edgeStyle=orthogonalEdgeStyle;rounded=0;jumpStyle=gap;orthogonalLoop=1;jettySize=auto;html=1;exitX=0.5;exitY=1;exitDx=0;exitDy=0;entryX=0;entryY=0.5;entryDx=0;entryDy=0;fontFamily=Verdana;fontSize=12;fontColor=#FF3021;startArrow=none;startFill=0;endArrow=block;endSize=7;targetPerimeterSpacing=16;" edge="1" parent="WIyWlLk6GJQsqaUBKTNV-1" source="YYjnZJt8T2wif80E0kBL-23" target="YYjnZJt8T2wif80E0kBL-26">
          <mxGeometry relative="1" as="geometry" />
        </mxCell>
        <mxCell id="YYjnZJt8T2wif80E0kBL-23" value="Lone Wolf&lt;br&gt;Omega" style="rounded=1;whiteSpace=wrap;html=1;fontSize=12;glass=0;strokeWidth=1;shadow=0;" vertex="1" parent="WIyWlLk6GJQsqaUBKTNV-1">
          <mxGeometry x="395" y="330" width="60" height="40" as="geometry" />
        </mxCell>
        <mxCell id="YYjnZJt8T2wif80E0kBL-24" value="def feed_the_pack()" style="rounded=1;whiteSpace=wrap;html=1;fontSize=12;glass=0;strokeWidth=1;shadow=0;" vertex="1" parent="WIyWlLk6GJQsqaUBKTNV-1">
          <mxGeometry x="190" y="440" width="110" height="20" as="geometry" />
        </mxCell>
        <mxCell id="YYjnZJt8T2wif80E0kBL-25" value="def target_alpha()" style="rounded=1;whiteSpace=wrap;html=1;fontSize=12;glass=0;strokeWidth=1;shadow=0;" vertex="1" parent="WIyWlLk6GJQsqaUBKTNV-1">
          <mxGeometry x="190" y="410" width="110" height="20" as="geometry" />
        </mxCell>
        <mxCell id="YYjnZJt8T2wif80E0kBL-26" value="def pacifeed()" style="rounded=1;whiteSpace=wrap;html=1;fontSize=12;glass=0;strokeWidth=1;shadow=0;" vertex="1" parent="WIyWlLk6GJQsqaUBKTNV-1">
          <mxGeometry x="470" y="410" width="80" height="20" as="geometry" />
        </mxCell>
        <mxCell id="YYjnZJt8T2wif80E0kBL-27" value="" style="shape=flexArrow;endArrow=classic;html=1;rounded=0;fontFamily=Verdana;fontSize=12;fontColor=#FF3021;endSize=7;targetPerimeterSpacing=16;jumpStyle=gap;exitX=0.484;exitY=1.002;exitDx=0;exitDy=0;exitPerimeter=0;entryX=0.484;entryY=-0.007;entryDx=0;entryDy=0;entryPerimeter=0;labelBackgroundColor=#29A2FF;labelBorderColor=default;fillColor=#29A2FF;strokeWidth=3;" edge="1" parent="WIyWlLk6GJQsqaUBKTNV-1" source="YYjnZJt8T2wif80E0kBL-2" target="YYjnZJt8T2wif80E0kBL-18">
          <mxGeometry width="50" height="50" relative="1" as="geometry">
            <mxPoint x="360" y="410" as="sourcePoint" />
            <mxPoint x="410" y="360" as="targetPoint" />
          </mxGeometry>
        </mxCell>
      </root>
    </mxGraphModel>
  </diagram>
</mxfile>
